<svg xmlns="http://www.w3.org/2000/svg" viewBox="0 0 253.41 253.35"><title>Asset 1</title><g id="Layer_2" data-name="Layer 2"><g id="Layer_1-2" data-name="Layer 1"><path d="M44.37,164.75l-8.13-.61,4.81-5.26c-1.15-.22-2-.39-2.94-.58a20.06,20.06,0,0,1-11.82-7.49q-5-6.28-9.83-12.65a29.62,29.62,0,0,0-12.31-9.64C2.8,128,1.49,127.33,0,126.67c1-.42,1.81-.82,2.67-1.12A32.37,32.37,0,0,0,18,114c2.69-3.55,5.6-6.91,8.38-10.39a20.91,20.91,0,0,1,14.76-8.14,2.16,2.16,0,0,0,.37-.21l-5.19-6.05,7.07-.33a7,7,0,0,0-.43-.7,21.22,21.22,0,0,1-4.18-16.43c.78-5.85,1.52-11.72,2.13-17.59a25.73,25.73,0,0,0-1.71-11.79c-.64-1.69-1.29-3.37-2-5.26l1.23.46c2.71,1,5.37,2.15,8.14,2.92,3.82,1.06,7.74.81,11.65.38,5.09-.56,10.17-1.15,15.27-1.57a20.17,20.17,0,0,1,14.33,4.37c.21.17.44.32.89.64l.63-8.08L94.51,41c.23-1.15.4-2.08.6-3a20,20,0,0,1,7.39-11.67q6.31-5,12.72-9.9a29.53,29.53,0,0,0,9.62-12.21c.57-1.37,1.2-2.72,1.88-4.24.38.88.75,1.61,1,2.37a32.94,32.94,0,0,0,12,15.85c3.16,2.35,6.1,5,9.22,7.4,5.14,4,8.4,9,9,16l6.24-5.33c.11,2.38.2,4.65.3,7.06a5.59,5.59,0,0,0,.69-.39,21.27,21.27,0,0,1,16.52-4.2c5.82.79,11.65,1.52,17.5,2.13a25.67,25.67,0,0,0,11.87-1.74l5.23-2c-.59,1.46-1.06,2.76-1.63,4-2.49,5.47-2.88,11.17-2.16,17.06q.94,7.62,1.58,15.27a20.08,20.08,0,0,1-4.42,14.31c-.11.16-.23.3-.34.46s0,.12-.1.4l7.92.61-4.81,5.25c1.1.21,2,.36,2.82.55a20.43,20.43,0,0,1,12.11,7.72c3.77,4.79,7.49,9.64,11.32,14.39a26,26,0,0,0,9.84,7.34l5,2.21c-.92.39-1.68.76-2.46,1a32.91,32.91,0,0,0-15.77,12c-2.46,3.32-5.23,6.41-7.77,9.66A21.38,21.38,0,0,1,211.83,158l5.44,6.38h-7l-.09.32c.12.2.23.4.37.59a21.2,21.2,0,0,1,4.16,16.34c-.78,5.86-1.52,11.72-2.14,17.59a25.69,25.69,0,0,0,1.73,11.88l2,5.24c-1.42-.58-2.7-1-3.92-1.6-5.53-2.52-11.29-2.92-17.25-2.18q-7.56.94-15.17,1.56a20.1,20.1,0,0,1-14.32-4.4c-.19-.16-.4-.3-.85-.62-.21,2.78-.42,5.38-.63,8.1l-5.23-4.81c-.23,1.14-.4,2.05-.6,3a20.05,20.05,0,0,1-7.44,11.75q-6.24,5-12.57,9.77a29.78,29.78,0,0,0-9.82,12.52c-.53,1.29-1.13,2.55-1.78,4-.19-.4-.33-.69-.46-1-.92-2.09-1.76-4.22-2.77-6.26a27.9,27.9,0,0,0-7.71-9.22c-4-3.26-8-6.55-12.08-9.78A21,21,0,0,1,95.45,212c-2.36,1.35-4.06,3.37-6.22,5.12L88.88,210c-.87.61-1.56,1.1-2.27,1.56a21.09,21.09,0,0,1-14.77,3.1c-5.86-.76-11.72-1.52-17.59-2.14a25.82,25.82,0,0,0-12,1.75l-5.18,2c.28-.7.52-1.23.71-1.78,1-2.9,2.17-5.77,2.91-8.74,1-4,.42-8.14,0-12.23-.51-4.58-1-9.16-1.38-13.75a20,20,0,0,1,4.45-14.21Zm32.85-37.36a50,50,0,1,0,50-50A50,50,0,0,0,77.22,127.39ZM73.88,78.74l.25-.19c-.7-2.17-1.4-4.33-2.13-6.61l6,2.17c-.08-.5-.11-.72-.16-.93A14.75,14.75,0,0,1,79,63.24c1.76-3.41,3.7-6.73,5.56-10.09.86-1.56,1.7-3.12,2.56-4.68a.73.73,0,0,0-.18-1.06,17.36,17.36,0,0,0-13.27-4.69c-5.1.43-10.18,1-15.26,1.57a36.49,36.49,0,0,1-13-.5c-.75-.18-1.49-.4-2.35-.63.13.5.22.83.31,1.16a27.77,27.77,0,0,1,.92,10Q43.35,63.18,42.14,72A18.39,18.39,0,0,0,46.4,87.09a1.18,1.18,0,0,0,1.68.4c2.83-1.5,5.67-3,8.51-4.47,2-1,4-2.15,6-3.15A15.66,15.66,0,0,1,73.88,78.74Zm.21,96.72a3.2,3.2,0,0,0-.44,0l-.56.11a15,15,0,0,1-9.85-1.1c-2.52-1.27-5-2.68-7.45-4l-7.23-4a.78.78,0,0,0-1.15.14,17.4,17.4,0,0,0-4.68,13.27c.43,5.1,1,10.18,1.58,15.26a36.73,36.73,0,0,1-.51,13c-.18.75-.39,1.49-.62,2.34l1.16-.3a27.28,27.28,0,0,1,10-.92q8.85.94,17.68,2.14a17.88,17.88,0,0,0,14.16-3.57c2-1.61,2-1,.79-3.47-2.16-4.28-4.5-8.46-6.75-12.69a15.81,15.81,0,0,1-1.9-9.74c.11-.77.26-1.54.44-2.58L72,181.4ZM179.28,78l.95-.16a15.1,15.1,0,0,1,10,1.08c2.52,1.27,5,2.69,7.44,4l7.23,4c.42.24.75.32,1.15-.14a17.4,17.4,0,0,0,4.68-13.27c-.43-5.07-1-10.12-1.56-15.17a34.6,34.6,0,0,1,1-14.8,3.13,3.13,0,0,0,.05-.58l-1.08.29a27.77,27.77,0,0,1-10,.92q-8.85-1-17.68-2.15c-5.23-.71-10,.26-14.16,3.58-2,1.57-2.06.94-.79,3.47,2.17,4.28,4.51,8.46,6.76,12.69a15.67,15.67,0,0,1,1.89,9.74c-.1.77-.25,1.53-.42,2.57l6.8-2.2Zm-3.74,101.3a1.86,1.86,0,0,0-.11.37l.12.65a14.87,14.87,0,0,1-1.13,9.85c-1.58,3.07-3.32,6.06-5,9.09q-1.53,2.79-3.08,5.58a.79.79,0,0,0,.19,1.14,17.28,17.28,0,0,0,13.1,4.65c4.59-.36,9.16-.88,13.74-1.39,4.3-.48,8.6-.87,12.9-.05,1.33.25,2.63.62,3.95.94a.63.63,0,0,0,.05-.22c-.06-.28-.14-.55-.21-.83a27.51,27.51,0,0,1-.95-10q.94-8.85,2.15-17.68c.72-5.26-.25-10.05-3.59-14.25-1.57-2-1-2-3.4-.78-4.28,2.16-8.46,4.5-12.69,6.75a15.69,15.69,0,0,1-10.86,1.74c-.42-.09-.84-.13-1.51-.23l2.21,6.79Zm28.58-52.61-5.86,2.75.69.47a15.1,15.1,0,0,1,6.38,7.83c.81,2.41,1.47,4.86,2.17,7.29.85,2.93,1.66,5.86,2.48,8.8.14.49.34.82,1,.77,4.74-.37,9-1.94,12.14-5.58,3-3.4,5.79-6.92,8.61-10.44s5.61-7.09,9.4-9.66c1.2-.81,2.44-1.54,3.72-2.34a5.12,5.12,0,0,0-.57-.38,29.13,29.13,0,0,1-8.63-7.25c-3.64-4.57-7.23-9.19-10.81-13.81a17.41,17.41,0,0,0-12.15-7.08c-2.62-.3-2.23-.65-3,1.87-1.5,4.55-2.81,9.16-4.2,13.74a15.88,15.88,0,0,1-6.63,9c-.3.19-.59.4-1.09.74ZM123.91,198.2a16,16,0,0,1-9.13,7.44c-1.67.53-3.35,1-5,1.46L99.58,210c-.54.15-.86.36-.81,1a17.66,17.66,0,0,0,6.45,12.91c3.45,2.85,7,5.64,10.41,8.49,1.86,1.54,3.72,3.09,5.47,4.74a28.08,28.08,0,0,1,5.58,7.65c.11,0,.18-.06.21-.11a5.66,5.66,0,0,0,.31-.48,28.75,28.75,0,0,1,7.19-8.55q6.86-5.47,13.81-10.81a17.53,17.53,0,0,0,7.12-12.24c.29-2.54.63-2.17-1.84-3-4.58-1.51-9.22-2.82-13.83-4.23a15.61,15.61,0,0,1-7.8-5c-.63-.77-1.2-1.6-1.93-2.6l-3.25,6.37ZM8.51,126.72c.28.19.47.34.68.46a29.09,29.09,0,0,1,8.56,7.19q5.47,6.85,10.81,13.81a17.46,17.46,0,0,0,12.23,7.12c2.56.3,2.18.63,3-1.84,1.5-4.58,2.82-9.22,4.23-13.83a15.77,15.77,0,0,1,5.12-7.86c.75-.61,1.55-1.15,2.54-1.86l-6.38-3.24,5.89-2.79a16,16,0,0,1-7.47-9.21c-.51-1.63-1-3.28-1.42-4.93q-1.44-5.08-2.85-10.17c-.15-.54-.36-.87-1-.82a17.75,17.75,0,0,0-13,6.53c-2.84,3.46-5.63,7-8.48,10.42-1.52,1.83-3.05,3.67-4.68,5.39A28.41,28.41,0,0,1,8.51,126.72ZM126.69,8.45c-.22.33-.35.5-.45.69A29.13,29.13,0,0,1,119,17.77c-4.57,3.64-9.19,7.23-13.81,10.8A17.45,17.45,0,0,0,98.1,40.73c-.3,2.6-.65,2.23,1.87,3.05,4.56,1.49,9.16,2.8,13.75,4.2a15.84,15.84,0,0,1,9,6.62c.19.3.4.6.74,1.09l3.26-6.42,2.76,5.86c.2-.3.31-.45.41-.61a15.1,15.1,0,0,1,7.89-6.45c2.4-.81,4.85-1.47,7.29-2.18,2.92-.84,5.86-1.65,8.79-2.48.49-.14.82-.33.77-1a17.71,17.71,0,0,0-6.48-13c-3.49-2.86-7-5.74-10.51-8.53C133.27,17.47,129.23,13.74,126.69,8.45ZM91.33,41.37a26.85,26.85,0,0,1-4.16,12c-1.82,3.09-3.56,6.24-5.32,9.36a13.81,13.81,0,0,0-1.5,10.48c.24,1,.68,1.28,1.61,1.18,2.75-.29,5.5-.53,8.25-.84a1.38,1.38,0,0,0,.82-.62c1.1-1.85,2.15-3.75,3.24-5.61a17.59,17.59,0,0,0,2.61-9c0-1,.13-2,.21-3.2l1,1c2,2,4.05,4,6.8,5s5.68,1.8,8.54,2.65a.94.94,0,0,0,.74-.23Q117.14,61.24,120,59c.56-.44,1.09-.94,1.61-1.39a12.69,12.69,0,0,0-7-6.69c-2.59-.95-5.24-1.73-7.89-2.52C101.38,46.77,95.81,45.63,91.33,41.37ZM41.48,162c.31.07.47.12.63.14a23.24,23.24,0,0,1,8.42,2.58c4.08,2.26,8.14,4.58,12.2,6.87A13.81,13.81,0,0,0,73.3,173c1-.25,1.2-.69,1.11-1.57-.29-2.78-.54-5.56-.84-8.34a1.24,1.24,0,0,0-.6-.74c-2-1.16-4-2.28-5.94-3.42a17.17,17.17,0,0,0-8.61-2.44c-1.05,0-2.11-.13-3.32-.21.48-.5.81-.88,1.17-1.24,1.92-1.95,3.85-3.93,4.77-6.58,1-2.81,1.81-5.68,2.65-8.54a1.24,1.24,0,0,0-.32-.9q-1.86-2.48-3.77-4.91c-.65-.82-1.33-1.6-2-2.42-3,1.57-5.38,3.63-6.54,6.76-1.08,2.91-2,5.9-2.86,8.88C46.66,152.5,45.46,157.78,41.48,162Zm154.27-40.26a12.78,12.78,0,0,0,6.57-6.68c1-2.48,1.71-5.05,2.5-7.59.7-2.27,1.32-4.57,2-6.85a24.67,24.67,0,0,1,5.07-9.2l-.49-.07a23,23,0,0,1-8.52-2.58c-4.11-2.27-8.18-4.61-12.28-6.92a13.8,13.8,0,0,0-10.48-1.45c-.95.24-1.23.65-1.14,1.55.3,2.78.54,5.57.85,8.35a1.2,1.2,0,0,0,.58.74c2,1.18,4,2.33,6,3.48A17.26,17.26,0,0,0,195,96.86c1.05,0,2.11.13,3.34.21-.47.5-.81.87-1.16,1.23-1.84,1.89-3.76,3.77-4.67,6.31-1,2.9-1.87,5.86-2.77,8.8a.74.74,0,0,0,.08.6C191.75,116.56,193.72,119.08,195.75,121.69Zm-39.44,76.6c-1-1-1.89-1.78-2.76-2.62a13.83,13.83,0,0,0-5.06-3.32c-2.82-1-5.68-1.8-8.54-2.65a1.12,1.12,0,0,0-.82.27q-2.77,2.1-5.52,4.25c-.64.5-1.24,1.06-1.87,1.61,1.59,3,3.69,5.41,6.85,6.56s6.28,2,9.43,3c3.73,1.14,7.57,2,10.89,4.17,1.05.69,2.05,1.46,3.18,2.27.31-4.53,2.11-8.42,4.33-12.16,1.78-3,3.48-6.06,5.19-9.11a13.88,13.88,0,0,0,1.46-10.4c-.25-1-.67-1.29-1.61-1.19-2.78.3-5.57.54-8.34.85a1.22,1.22,0,0,0-.73.6c-1.15,1.95-2.27,3.91-3.38,5.87a16.12,16.12,0,0,0-2.29,6.51C156.55,194.57,156.45,196.34,156.31,198.29ZM55.07,97c.73,0,1.17,0,1.61,0,2.67-.09,5.39,0,7.86-1.16C67.32,94.49,70,93,72.73,91.55a1,1,0,0,0,.43-.66c.36-2.8.64-5.62,1-8.41.14-1-.27-1.27-1.1-1.47a14,14,0,0,0-10.39,1.46c-3.51,1.93-7,3.88-10.56,5.7a43.47,43.47,0,0,1-5.88,2.41,38.84,38.84,0,0,1-4.66,1c.7,1,1.42,2,2.06,3a32.45,32.45,0,0,1,3.4,8.85c1.1,4,2.15,8,3.47,11.86,1.11,3.28,3.62,5.42,6.6,7,.14-.1.2-.13.24-.17,2-2.41,4.06-4.8,6.06-7.23a1.12,1.12,0,0,0,0-.87c-.53-2-1.12-4.1-1.64-6.16a18,18,0,0,0-4.61-8.41C56.54,98.67,55.92,97.92,55.07,97Zm141,34.12c-2.05,2.5-4.08,5-6.1,7.47a.81.81,0,0,0-.12.6c.87,3.09,1.68,6.19,2.67,9.24.87,2.69,2.8,4.72,4.7,6.74.33.35.64.72,1.13,1.28-.79,0-1.3,0-1.8,0-2.57.08-5.2,0-7.58,1.12-2.81,1.33-5.53,2.84-8.28,4.29a1,1,0,0,0-.43.66c-.37,2.9-.69,5.8-1.05,8.7-.07.62.11.89.73,1.07a13.77,13.77,0,0,0,10.6-1.26c3.57-1.93,7.11-3.93,10.73-5.78a42.49,42.49,0,0,1,5.88-2.42,39.94,39.94,0,0,1,4.68-1c-.24-.33-.44-.64-.68-.94a22.35,22.35,0,0,1-3.84-7.6c-1.24-4.33-2.43-8.68-3.62-13A13.9,13.9,0,0,0,196.06,131.09ZM97,198.27c0-.73,0-1.24,0-1.74-.1-2.57,0-5.2-1.13-7.58-1.33-2.8-2.83-5.53-4.29-8.27a1,1,0,0,0-.65-.44c-2.9-.37-5.8-.69-8.7-1.05a.83.83,0,0,0-1.07.73,13.65,13.65,0,0,0,1.26,10.59c1.92,3.58,3.93,7.11,5.78,10.73a41.24,41.24,0,0,1,2.41,5.88,39.25,39.25,0,0,1,1,4.66c1-.71,2-1.44,3.07-2.09,2.89-1.82,6.16-2.63,9.4-3.54,3.79-1.06,7.61-2,11.32-3.33,3.23-1.11,5.35-3.6,6.88-6.58A2.41,2.41,0,0,0,122,196c-2.38-2-4.76-4-7.16-6a1.16,1.16,0,0,0-.87,0c-2.21.57-4.42,1.15-6.62,1.77a15.79,15.79,0,0,0-5.9,2.78C100,195.64,98.6,196.89,97,198.27ZM156.43,55.05c0,.79,0,1.32,0,1.84.09,2.7.06,5.44,1.28,7.94,1.3,2.67,2.74,5.29,4.16,7.91a1,1,0,0,0,.67.41c2.84.36,5.68.65,8.51,1,.84.12,1.11-.23,1.29-1A13.8,13.8,0,0,0,171,62.92c-1.93-3.57-3.88-7.14-5.81-10.72a25,25,0,0,1-3.08-9c-.06-.52-.14-1-.24-1.71a26.78,26.78,0,0,1-11.28,5.44c-3.47.89-6.92,1.88-10.37,2.84a13.72,13.72,0,0,0-9,7.39c0,.09.07.17.11.2,2.42,2,4.84,4.11,7.29,6.13a1.08,1.08,0,0,0,.78,0c2.09-.55,4.16-1.15,6.25-1.67A17.89,17.89,0,0,0,154,57.25C154.7,56.56,155.47,55.91,156.43,55.05ZM123.55,75.14c-1.14-3.57-3-6.42-6.52-7.7-2.8-1-5.67-1.83-8.54-2.66-3.21-.93-6.36-2-9-4.17a1,1,0,0,0-.37-.13,21.22,21.22,0,0,1-3.23,8.83c-1.41,2.41-2.78,4.85-4.15,7.28-2.27,4-1.79,8,.39,11.9A52.57,52.57,0,0,1,123.55,75.14ZM74.94,124A52.33,52.33,0,0,1,87.62,93.11c-.09-.1-.12-.17-.17-.2l-.58-.33a9.83,9.83,0,0,0-10.72-.14q-3.81,2.27-7.79,4.22a51.28,51.28,0,0,1-5.56,2.18,15.19,15.19,0,0,1-2.39.43c.17.27.27.46.39.63a19.72,19.72,0,0,1,3.25,6.94c.82,3,1.66,6.06,2.49,9.09C67.73,120.22,70.66,122.71,74.94,124ZM154,60.47a5.66,5.66,0,0,0-.59.37,17.4,17.4,0,0,1-5.68,2.83c-3.42,1-6.85,1.9-10.27,2.86a9.79,9.79,0,0,0-7.31,8.56,52.54,52.54,0,0,1,31,12.4c1.48-3,2-6.06.74-9.16-.87-2-2-4-3-6-1.22-2.4-2.55-4.75-3.63-7.22A31.64,31.64,0,0,1,154,60.47ZM74.89,130a4.3,4.3,0,0,0-.54.09,11.11,11.11,0,0,0-7.43,7.57c-.7,2.37-1.45,4.74-2.1,7.12A23.88,23.88,0,0,1,60.57,154c0,.05,0,.16,0,.24.87.17,1.72.32,2.55.52a28.62,28.62,0,0,1,7.24,3.33c2.6,1.47,5.16,3,7.86,4.28,3.14,1.47,6.29.87,9.43-.63A52.39,52.39,0,0,1,74.89,130Zm104.57-7a1,1,0,0,0,.25,0,2.6,2.6,0,0,0,.36-.13,10.77,10.77,0,0,0,6.4-7.11c.6-2,1.18-3.94,1.77-5.92.87-3,1.58-6,3.29-8.58.45-.69.94-1.34,1.48-2.12a22.25,22.25,0,0,1-9.28-3.45c-2.29-1.35-4.62-2.66-6.94-4-3.69-2.08-7.38-1.88-11.15,0A52.51,52.51,0,0,1,179.46,123Zm-55.87,56.7a52.55,52.55,0,0,1-31.53-13.42,10.79,10.79,0,0,0,.2,10.55c1.47,2.74,3,5.43,4.42,8.22a51.28,51.28,0,0,1,2.18,5.56,12.25,12.25,0,0,1,.39,2.18c1.78-.91,3.46-1.95,5.27-2.66s3.83-1.15,5.75-1.71c2.43-.71,4.91-1.3,7.29-2.18C120.6,185.12,122.42,182.74,123.59,179.7Zm69.5-25.61c-2.94-3.44-3.73-7.62-4.86-11.68-.61-2.19-1.17-4.42-2-6.55-1.15-3.07-3.55-4.9-6.68-6.11a52.56,52.56,0,0,1-12.65,31.88c2.84,1.19,5.64,1.47,8.33.19,3.32-1.57,6.49-3.47,9.79-5.1a49.91,49.91,0,0,1,5.55-2.18A16.77,16.77,0,0,1,193.09,154.09Zm-31,12.49a52.6,52.6,0,0,1-31.67,13.16c1.17,2.85,2.92,5.06,5.71,6.1s5.85,1.91,8.8,2.76c3.22.93,6.36,2,9,4.18a1.45,1.45,0,0,0,.37.12,21.47,21.47,0,0,1,3.24-8.83c1.41-2.41,2.78-4.84,4.15-7.27A10.87,10.87,0,0,0,162.07,166.58ZM126.66,54.75c-2.25,4.56-6.39,6.92-10.06,9.94,5.27,1.65,8,5.4,9.43,10.29,1.51.15,1.49.14,1.9-1.17.3-.94.6-1.88,1-2.78a10.35,10.35,0,0,1,5.15-5.75c.59-.27,1.19-.52,1.91-.84C132.52,61.58,128.75,59.14,126.66,54.75ZM90.3,90.13c-2.54-4.44-3.44-9-1-14-4.53.4-8.92,1.37-13.49-.29,1.61,4.9.38,9.46-.06,13.87a36.59,36.59,0,0,1,4.88-1.21c2.8-.32,5.31.78,7.66,2.15C89.2,91.18,89.76,91.16,90.3,90.13ZM64.52,136.59a45.73,45.73,0,0,1,2.54-4.29,14.09,14.09,0,0,1,7.13-4.7c.26-.09.44-.42.66-.65-.22-.2-.4-.51-.66-.6a16.81,16.81,0,0,1-6.55-3.77,13.62,13.62,0,0,1-3.15-5.15c-1.48,1.78-2.78,3.59-4.33,5.16s-3.31,2.87-5,4.34C59.32,129,61.69,133.08,64.52,136.59ZM177.28,89.27c-.43-4.53-1.39-8.92.27-13.48-4.89,1.6-9.45.39-14.15-.09,2.43,4.65,1.94,9.11-.31,13.39.45.85.93.8,1.61.46a15,15,0,0,1,6.29-1.7A13.25,13.25,0,0,1,177.28,89.27ZM75.85,177.59c4.89-1.6,9.45-.38,14.09.09-.13-.31-.21-.55-.32-.77a13,13,0,0,1,.16-11.41,1.23,1.23,0,0,0-.54-1.89,17,17,0,0,1-6.38,1.91,13,13,0,0,1-6.72-1.41C76.54,168.62,77.51,173,75.85,177.59ZM188.93,136c2.88-3.49,5.33-7.26,9.29-9.15-1.76-1.61-3.57-3.06-5.13-4.74s-2.88-3.59-4.38-5.51a13.23,13.23,0,0,1-8.51,8.81c-.55.21-.61.53-.59,1s0,.81.6,1a15,15,0,0,1,5.29,3.13A13.45,13.45,0,0,1,188.93,136Zm-62.38,62.24c1.59-1.75,3-3.56,4.71-5.13s3.61-2.88,5.45-4.33c-5.49-2.67-5.79-3-8.76-8.52-.16-.29-.83-.4-1.27-.4a1.07,1.07,0,0,0-.76.59,13.65,13.65,0,0,1-4.32,6.16,47,47,0,0,1-4,2.46C120.89,191.81,124.64,194.22,126.55,198.23Zm37.57-21c4.54-.41,8.91-1.38,13.49.28-1.61-4.88-.4-9.45.08-14-1,.36-1.87.76-2.81,1a13,13,0,0,1-8.83-.66c-.54-.22-1-.35-1.41.2a1.36,1.36,0,0,0-.4,1.54A31.68,31.68,0,0,1,165.5,171,11.22,11.22,0,0,1,164.12,177.26Z"/></g></g></svg>